<?xml version="1.0" standalone="no"?>
<!DOCTYPE svg PUBLIC "-//W3C//DTD SVG 20010904//EN"
 "http://www.w3.org/TR/2001/REC-SVG-20010904/DTD/svg10.dtd">
<svg version="1.0" xmlns="http://www.w3.org/2000/svg"
 width="1024.000000pt" height="1024.000000pt" viewBox="0 0 1024.000000 1024.000000"
 preserveAspectRatio="xMidYMid meet">

<g transform="translate(0.000000,1024.000000) scale(0.100000,-0.100000)"
fill="#000000" stroke="none">
<path d="M5015 8543 c-28 -7 -65 -43 -65 -64 0 -13 -13 -18 -67 -24 -150 -15
-299 -58 -368 -105 -42 -29 -123 -108 -150 -147 -101 -144 -179 -380 -201
-605 l-7 -67 -70 -48 c-38 -26 -77 -53 -86 -60 -13 -10 -47 4 -193 78 -98 49
-178 92 -178 94 0 2 11 21 25 41 14 20 25 42 25 48 0 6 -35 45 -79 86 l-78 75
17 60 c37 128 97 247 160 315 48 52 42 60 -45 60 -164 0 -331 -93 -432 -240
-17 -25 -123 -211 -236 -415 -112 -203 -241 -430 -286 -504 -86 -142 -153
-275 -191 -380 l-24 -63 25 -20 c129 -103 266 -171 444 -222 77 -22 258 -55
305 -56 13 0 13 -1 0 -10 -24 -16 -301 16 -430 50 -41 10 -76 17 -78 15 -8 -7
38 -381 67 -556 45 -261 94 -483 109 -492 4 -3 34 -1 67 4 192 26 591 33 544
9 -8 -4 -63 -12 -124 -19 -219 -23 -484 -63 -680 -102 -253 -50 -275 -56 -275
-75 0 -8 21 -105 46 -217 25 -111 68 -303 95 -427 27 -124 54 -242 60 -262
l10 -38 154 0 c182 0 166 24 131 -189 -13 -80 -36 -222 -51 -316 -14 -93 -35
-222 -45 -285 -30 -186 -31 -175 10 -173 41 3 411 41 766 78 l251 26 174 -173
c289 -287 619 -521 944 -668 l95 -43 95 43 c205 92 469 259 682 428 59 48 181
160 271 250 l163 163 112 -11 c62 -6 216 -22 342 -36 127 -13 298 -31 380 -40
83 -8 165 -18 183 -21 30 -5 32 -3 32 22 0 15 -9 79 -19 143 -11 65 -32 194
-46 287 -15 94 -38 237 -51 320 -35 220 -52 195 130 195 139 0 155 2 160 18 2
9 19 80 36 157 17 77 62 280 101 452 38 171 69 316 69 322 0 13 -35 22 -275
70 -199 39 -715 115 -715 104 0 -1 16 -23 35 -48 43 -58 65 -129 65 -217 0
-78 -28 -174 -66 -223 -54 -72 -188 -113 -305 -94 -159 26 -238 120 -246 294
-6 116 18 188 86 256 76 76 206 109 310 79 18 -5 117 -12 220 -15 102 -3 238
-12 301 -19 63 -7 118 -10 121 -7 19 18 91 363 129 616 25 171 51 416 45 426
-3 4 -38 -1 -77 -12 -127 -33 -404 -65 -428 -49 -12 8 -12 10 -1 10 51 0 238
36 322 61 169 50 366 153 432 227 17 19 17 22 -13 98 -44 110 -105 230 -185
359 -37 61 -162 281 -278 490 -115 209 -223 399 -240 423 -101 149 -268 242
-432 242 -85 0 -93 -9 -50 -54 19 -20 50 -64 69 -96 39 -66 106 -238 106 -271
0 -13 -27 -46 -75 -91 -41 -38 -75 -77 -75 -86 0 -8 12 -30 26 -49 14 -19 24
-36 23 -38 -15 -13 -493 -255 -505 -255 -21 0 -94 38 -94 50 0 5 5 21 11 37
15 40 12 212 -7 323 -46 278 -165 482 -359 617 -58 40 -280 93 -393 93 -41 0
-42 1 -40 32 2 25 -2 34 -22 45 -24 12 -104 16 -145 6z m-642 -638 c-38 -80
-38 -102 0 -68 26 24 117 83 129 83 4 0 -15 -30 -42 -66 -85 -111 -97 -152
-32 -105 29 20 103 53 108 48 2 -2 -12 -25 -31 -52 -19 -26 -33 -50 -31 -52 2
-3 41 7 86 21 44 14 91 26 103 26 19 0 17 -4 -17 -39 -21 -21 -34 -41 -29 -43
4 -3 40 -2 78 2 39 4 72 5 74 4 2 -2 -12 -12 -30 -23 -29 -18 -44 -19 -148
-14 -67 3 -159 1 -219 -6 -57 -7 -105 -11 -107 -9 -6 6 24 183 40 238 15 50
75 130 97 130 4 0 -9 -34 -29 -75z m1398 -605 c24 -68 36 -67 41 0 3 39 6 45
27 48 23 4 23 3 15 -50 -11 -64 -12 -201 -2 -244 6 -28 5 -31 -12 -27 -11 3
-20 2 -20 -1 0 -3 23 -37 50 -75 67 -93 67 -147 -3 -249 -35 -52 -64 -65 -183
-88 -142 -26 -161 -33 -210 -70 l-47 -36 -93 27 c-51 16 -97 31 -103 34 -6 4
-26 51 -45 105 -19 55 -40 102 -48 107 -7 5 -22 2 -35 -7 -21 -13 -26 -13 -49
2 -22 15 -27 15 -39 3 -15 -16 -45 -101 -45 -129 0 -13 -9 -22 -27 -26 -45 -9
-84 -25 -155 -60 l-66 -34 -59 30 c-38 19 -91 35 -154 45 -52 8 -111 21 -130
29 -70 30 -128 123 -129 206 0 39 7 56 45 108 50 69 53 76 26 67 -18 -5 -18
-3 -4 52 7 32 12 92 11 133 l-3 75 68 -4 c53 -2 118 -20 285 -78 119 -41 244
-80 277 -87 91 -19 87 -47 -10 -67 -35 -6 -52 -2 -128 32 -48 21 -89 39 -92
39 -3 0 -47 20 -97 45 -98 48 -148 56 -186 29 -29 -20 -28 -34 4 -34 l26 0
-33 -27 c-45 -38 -58 -77 -53 -153 10 -138 26 -167 129 -235 50 -34 56 -35
145 -35 106 0 143 13 191 68 18 20 43 59 55 87 38 82 54 92 166 100 l97 7 29
-28 c15 -16 36 -50 45 -76 26 -66 91 -133 146 -148 54 -14 168 -1 203 25 22
15 21 16 -29 9 -62 -8 -70 1 -14 16 58 15 125 87 153 163 l23 62 5 -50 5 -50
19 56 c26 77 16 122 -35 172 -32 29 -37 39 -25 43 9 3 23 3 32 0 25 -10 11 17
-17 31 -41 22 -81 15 -179 -31 -190 -89 -283 -126 -302 -120 -38 12 -9 29 125
74 221 76 263 101 350 214 15 20 32 36 37 36 5 0 19 -27 31 -60z m-2266 -172
c41 -18 75 -35 75 -39 0 -7 -169 -79 -187 -79 -6 0 -9 8 -7 18 2 9 8 43 14 75
6 31 16 57 21 57 5 0 43 -14 84 -32z m3306 -86 c4 -20 3 -32 -4 -32 -19 0 -97
32 -97 40 0 9 60 29 80 27 8 -1 17 -17 21 -35z m-3954 -195 c89 -46 213 -82
338 -97 55 -7 100 -13 101 -13 1 -1 4 -71 8 -154 l6 -153 -33 0 c-154 2 -456
84 -563 155 l-22 14 24 58 c33 80 31 91 -8 61 -95 -71 -94 -71 -118 -58 -20
10 -22 17 -17 55 7 48 48 157 85 222 l24 43 53 -48 c29 -26 84 -65 122 -85z
m4694 71 c37 -73 79 -192 79 -223 0 -13 -10 -27 -24 -34 -22 -12 -29 -9 -82
33 -33 25 -62 46 -66 46 -3 0 4 -28 18 -62 13 -34 24 -68 24 -76 0 -24 -161
-91 -315 -131 -83 -22 -281 -48 -291 -39 -3 4 -3 56 1 116 l7 110 49 27 c27
14 49 30 49 36 0 5 -21 9 -47 9 -72 0 -43 11 54 21 179 18 358 89 455 179 29
27 54 49 55 50 2 0 17 -28 34 -62z m-1865 -387 c-9 -16 -22 -31 -30 -34 -11
-4 -10 3 6 29 24 41 45 46 24 5z m-1099 -44 c13 -26 13 -31 0 -45 -14 -13 -17
-10 -27 27 -6 23 -14 50 -17 59 -11 28 25 -6 44 -41z m-664 -1024 c38 -24 39
-24 44 -3 5 19 12 21 77 18 66 -3 71 -4 70 -25 0 -13 -1 -68 -2 -123 l-2 -100
-75 0 c-63 0 -77 3 -81 18 -20 61 -30 76 -60 88 -41 17 -74 6 -103 -34 -25
-36 -44 -125 -35 -167 26 -124 111 -159 215 -89 l54 36 47 -53 47 -54 -20 -21
c-12 -12 -48 -37 -82 -56 -59 -31 -68 -33 -162 -33 -87 0 -106 3 -148 25 -55
27 -96 70 -129 133 -20 36 -23 57 -23 142 0 87 3 107 26 155 72 152 228 217
342 143z m435 11 l92 -7 0 -53 c0 -53 0 -54 -30 -54 l-31 0 3 -67 3 -68 80 0
80 0 3 63 c3 61 2 62 -23 62 -24 0 -25 2 -25 60 l0 61 143 -3 142 -3 0 -55 c0
-53 -1 -55 -27 -58 l-28 -3 0 -92 c0 -51 -3 -136 -7 -189 l-6 -98 26 0 c26 0
27 -2 27 -60 l0 -61 -137 3 -138 3 -3 58 c-3 55 -2 57 23 57 24 0 25 2 25 64
l0 64 -64 7 c-100 11 -101 10 -101 -65 0 -63 1 -65 28 -68 26 -3 27 -6 27 -58
l0 -54 -145 0 -145 0 0 60 c0 57 1 60 25 60 24 0 25 2 25 68 0 38 3 124 7 190
l6 122 -26 0 c-26 0 -27 2 -27 53 0 30 3 57 7 60 8 9 74 9 191 1z m914 -20
l44 -6 27 -92 c15 -50 46 -161 70 -246 l44 -155 32 -3 31 -3 0 -61 0 -61 -97
6 c-54 4 -133 7 -175 7 l-78 0 0 60 0 60 41 -6 42 -7 -7 29 c-4 16 -9 30 -11
32 -2 2 -40 6 -86 9 -72 5 -84 4 -96 -12 -21 -30 -16 -45 17 -45 l30 0 0 -60
0 -60 -42 0 c-24 0 -87 3 -140 7 l-98 6 0 53 c0 52 0 53 32 56 l32 3 61 187
c55 169 59 187 43 191 -14 4 -18 15 -18 54 0 27 3 53 7 56 8 9 235 9 295 1z
m581 -23 c4 -4 4 -28 1 -54 -5 -37 -11 -47 -25 -47 -11 0 -19 -3 -19 -7 0 -4
16 -52 35 -107 19 -56 39 -121 46 -146 l11 -44 17 50 c10 27 37 91 59 142 23
51 42 94 42 97 0 3 -9 5 -20 5 -18 0 -20 7 -20 61 l0 62 92 -7 c50 -3 106 -6
125 -6 l33 0 0 -55 c0 -50 -2 -55 -22 -55 -20 0 -34 -24 -102 -178 -44 -97
-95 -210 -112 -249 l-33 -73 -60 0 c-93 0 -102 6 -146 106 -21 49 -69 159
-106 244 -60 138 -70 155 -93 158 -25 3 -26 6 -26 63 l0 60 158 -7 c86 -4 160
-10 165 -13z m-198 -821 c314 -16 797 -60 875 -81 39 -10 11 -8 -290 16 -352
28 -766 38 -1337 32 -561 -6 -752 -13 -1071 -43 -95 -8 -178 -14 -185 -11 -41
14 629 77 958 90 188 8 873 6 1050 -3z m-2048 -96 c-3 -3 -12 -4 -19 -1 -8 3
-5 6 6 6 11 1 17 -2 13 -5z m3010 0 c-3 -3 -12 -4 -19 -1 -8 3 -5 6 6 6 11 1
17 -2 13 -5z m-2082 -188 c72 -30 34 -90 -95 -150 l-75 -35 82 0 c60 -1 86 3
97 14 19 20 26 19 26 -4 0 -27 -18 -31 -156 -31 -146 0 -157 10 -61 57 119 58
153 105 102 139 -33 21 -97 11 -127 -22 -28 -29 -38 -30 -38 -4 0 14 11 26 33
35 42 19 168 19 212 1z m539 0 c70 -29 89 -110 39 -166 -54 -60 -222 -60 -275
0 -50 55 -32 136 36 166 41 17 158 18 200 0z m531 0 c72 -30 34 -90 -95 -150
l-75 -35 82 0 c60 -1 86 3 97 14 19 20 26 19 26 -4 0 -27 -18 -31 -156 -31
-146 0 -157 10 -61 57 119 58 153 105 102 139 -33 21 -97 11 -127 -22 -28 -29
-38 -30 -38 -4 0 14 11 26 33 35 42 19 168 19 212 1z m510 0 c72 -30 34 -90
-95 -150 l-75 -35 82 0 c60 -1 86 3 97 14 19 20 26 19 26 -4 0 -27 -18 -31
-156 -31 -146 0 -157 10 -61 57 119 58 153 105 102 139 -33 21 -97 11 -127
-22 -28 -29 -38 -30 -38 -4 0 14 11 26 33 35 42 19 168 19 212 1z m-980 -848
l30 -63 65 -9 c36 -5 67 -11 69 -13 3 -2 -17 -26 -44 -53 l-48 -49 10 -68 c6
-37 9 -69 8 -71 -2 -2 -30 12 -64 30 l-61 33 -62 -33 c-34 -17 -63 -31 -64
-29 -2 2 2 33 8 71 l11 67 -46 47 c-26 26 -47 50 -47 54 0 3 29 9 66 13 l65 7
32 64 c17 35 34 64 37 64 3 0 19 -28 35 -62z"/>
<path d="M5821 6901 c-6 -10 -8 -34 -4 -54 6 -38 -16 -85 -57 -122 -11 -10
-20 -27 -20 -38 0 -17 5 -19 36 -14 47 8 62 22 90 82 29 62 30 104 3 139 -24
31 -35 33 -48 7z"/>
<path d="M4300 6841 c-18 -35 -11 -66 26 -104 42 -43 74 -49 74 -13 0 13 -7
30 -17 37 -9 8 -25 33 -35 57 -21 46 -32 52 -48 23z"/>
<path d="M4995 6843 c-48 -12 -71 -68 -63 -153 3 -34 4 -32 31 36 15 40 37 80
47 89 20 18 27 36 13 34 -5 -1 -17 -4 -28 -6z"/>
<path d="M5120 6844 c0 -3 13 -19 29 -34 16 -16 31 -40 35 -54 10 -42 46 -119
52 -113 4 3 -2 39 -11 79 -13 50 -27 81 -46 100 -24 25 -59 38 -59 22z"/>
<path d="M5146 5290 c-8 -21 -56 -163 -56 -167 0 -2 25 -3 55 -3 30 0 55 3 55
8 -2 32 -49 174 -54 162z"/>
<path d="M4943 4320 c-30 -12 -43 -41 -43 -95 0 -54 32 -95 75 -95 14 0 37 11
50 25 31 30 35 111 8 143 -21 25 -60 35 -90 22z"/>
<path d="M6514 5299 c-69 -34 -94 -242 -38 -326 38 -59 97 -53 130 14 24 48
27 209 5 261 -11 26 -57 65 -73 61 -2 0 -12 -5 -24 -10z"/>
</g>
</svg>
